<svg xmlns="http://www.w3.org/2000/svg" xmlns:xlink="http://www.w3.org/1999/xlink" width="100" height="100" viewBox="0 0 100 100"><g><g transform="translate(50 50) scale(1.05 1.05) rotate(-30) translate(-50 -50)" style="fill:#28bbbb"><svg fill="#28bbbb" xmlns="http://www.w3.org/2000/svg" xmlns:xlink="http://www.w3.org/1999/xlink" version="1.1" x="0px" y="0px" viewBox="0 0 100 100" enable-background="new 0 0 100 100" xml:space="preserve"><g><g><path d="M88.994,62.911h-8.128l-0.434,0.748l-0.905,1.568l-1.954-1.127l0.913-1.583l-3.214-5.566h-6.431l-0.433,0.751l-0.479,0.83    l-3.719-2.146l2.829-4.9l7.962,0.016v1.736l5.726,3.308l5.725-3.308v-6.61l-5.725-3.306l-5.726,3.306v1.875l-7.961-0.016    l-2.845-4.929l3.731-2.154l0.8,1.388h6.433l3.216-5.568l-0.802-1.389l1.953-1.128l1.226,2.124h8.13l4.066-7.041l-4.066-7.039    h-8.13l-4.063,7.041l0.435,0.75l0.903,1.566l-1.954,1.128l-0.913-1.58h-6.433l-3.209,5.567l0.431,0.749l0.479,0.832l-3.732,2.156    l-2.932-5.078l3.925-6.695l1.534,0.886l5.728-3.304v-6.612l-5.728-3.304L59.5,20.157v6.612l0.75,0.433l0.843,0.486l-3.922,6.688    h-5.674v-4.119h1.602l3.216-5.569l-3.216-5.567h-1.602v-2.258h2.452l4.063-7.04l-4.063-7.04h-8.128l-4.066,7.04l4.066,7.04h2.677    v2.258H46.67l-3.213,5.567l3.213,5.569h1.828v4.119h-5.886l-3.812-6.705l1.532-0.884v-6.612l-5.727-3.306l-5.725,3.306v6.612    l5.727,3.306l0.75-0.433l0.845-0.488l3.811,6.699l-2.88,4.99l-3.533-2.04l0.801-1.387l-3.214-5.566h-6.431l-0.8,1.385    l-1.955-1.128L23.223,30l-4.064-7.04H11.03L6.966,30l4.064,7.042h8.128l0.433-0.751l0.906-1.569l1.955,1.128l-0.914,1.583    L24.752,43h6.431l0.434-0.75l0.479-0.832l3.533,2.04l-2.901,5.025l-7.631-0.007V46.75l-5.726-3.306l-5.726,3.306v6.611    l5.726,3.308l5.726-3.308v-1.884l7.631,0.007l2.874,4.979l-3.618,2.088l-0.801-1.388h-6.431l-3.212,5.566l0.801,1.389    l-1.957,1.129l-1.227-2.124h-8.127l-4.063,7.04l4.061,7.04h8.131l4.063-7.04l-0.433-0.749l-0.905-1.567l1.955-1.129l0.912,1.581    h6.433l3.212-5.569l-0.433-0.75l-0.479-0.83l3.618-2.088l2.904,5.03l-3.888,6.677l-1.514-0.873l-5.726,3.305v6.609l5.726,3.309    l5.726-3.309v-6.611l-0.75-0.432l-0.864-0.498l3.884-6.675h5.881v4.119h-1.603l-3.215,5.569l3.215,5.567h1.603v2.257h-2.452    l-4.065,7.04l4.065,7.042h8.127l4.065-7.042l-4.065-7.04h-2.677v-2.257h1.827l3.216-5.567l-3.216-5.569h-1.826l0.001-4.119h5.687    l3.943,6.725l-1.444,0.834v6.611l5.726,3.305l5.728-3.305v-6.611l-5.728-3.307l-0.751,0.434l-0.933,0.538l-3.946-6.73l2.945-5.103    l3.719,2.147l-0.801,1.387l3.212,5.569h6.435l0.8-1.387l1.952,1.128l-1.226,2.122l4.065,7.043h8.128l4.065-7.043L88.994,62.911z     M78.002,48.361l2.726-1.574l2.726,1.573v3.145l-2.726,1.575L78,51.505L78.002,48.361z M82.486,25.751h4.664l2.334,4.04    l-2.334,4.038h-4.664l-2.332-4.038L82.486,25.751z M70.461,34.655h2.967l0.047,0.082l1.436,2.487l-0.129,0.224l-1.354,2.345    h-2.967l-1.434-2.487l-0.047-0.081L70.461,34.655z M62.501,21.886l2.723-1.571l2.727,1.573v3.149l-2.727,1.572l-2.723-1.571    V21.886z M37.331,25.053l-2.725,1.574l-2.727-1.574v-3.147l2.727-1.573l2.725,1.573V25.053z M17.426,34.042h-4.665l-2.332-4.04    l2.332-4.042h4.666L19.76,30L17.426,34.042z M29.499,39.919l-0.048,0.083h-2.965l-1.483-2.569l0.047-0.082l1.436-2.486h2.964    l1.351,2.341l0.132,0.229L29.499,39.919z M22.097,51.629l-2.726,1.574l-2.724-1.575V48.48l2.724-1.572l2.726,1.574V51.629z     M17.427,74.203h-4.666l-2.333-4.041l2.333-4.039h4.666l2.333,4.04L17.427,74.203z M29.45,65.298h-2.965l-0.047-0.081    l-1.437-2.488l0.128-0.222l1.355-2.348h2.967l1.435,2.489l0.046,0.08L29.45,65.298z M37.332,78.079l-2.727,1.575l-2.727-1.575    v-3.147l2.727-1.573l2.727,1.574V78.079z M62.67,74.883l2.725-1.572l2.725,1.572v3.148l-2.725,1.572l-2.725-1.572V74.883z     M47.552,13.861L45.22,9.822l2.332-4.04h4.665l2.332,4.04l-2.332,4.039H47.552z M48.401,27.254l-1.482-2.567l1.481-2.568h2.966    l0.131,0.227l1.353,2.341l-1.353,2.341l-0.131,0.227H48.401z M52.427,86.105l2.331,4.04l-2.332,4.04h-4.663l-2.334-4.04    l2.333-4.04H52.427z M51.577,72.713l1.482,2.568l-1.484,2.565H48.61l-0.128-0.222l-1.354-2.344l1.354-2.347l0.128-0.222H51.577z     M57.162,62.591l-14.556,0.002l-7.281-12.608l7.279-12.609h14.558l7.279,12.609L57.162,62.591z M74.975,62.6l-1.436,2.488h-2.966    l-1.355-2.347L69.09,62.52l1.438-2.487l0.047-0.081h2.965l1.481,2.568L74.975,62.6z M87.263,73.99h-4.665l-2.333-4.04l2.334-4.038    h4.664l2.333,4.04L87.263,73.99z M54.742,41.568h-9.716l-4.861,8.416l4.859,8.418h9.72l4.859-8.418L54.742,41.568z M53.01,55.401    l-6.251,0.002l-3.13-5.419l3.128-5.417h6.253l3.13,5.417L53.01,55.401z"></path></g></g></svg></g></g></svg>